HIERARCHY
ROOT Hips
{
     OFFSET 19.75400 91.89740 -4.67708
     CHANNELS 6 Xposition Yposition Zposition Zrotation Xrotation Yrotation
     JOINT Spine
     {
          OFFSET -0.00000 11.89050 -0.00000
          CHANNELS 3 Zrotation Xrotation Yrotation
          JOINT Spine1
          {
               OFFSET -0.00000 25.65740 0.12766
               CHANNELS 3 Zrotation Xrotation Yrotation
               JOINT HEad
               {
                    OFFSET -0.00000 8.73416 0.01134
                    CHANNELS 3 Zrotation Xrotation Yrotation
                    End Site
                    {
                         OFFSET -0.29000 12.77420 2.51395
                    }
               }
               JOINT LeftShoulder1
               {
                    OFFSET 8.99000 -0.36225 -0.22000
                    CHANNELS 3 Zrotation Xrotation Yrotation
                    JOINT LeftArm
                    {
                         OFFSET 10.28270 -0.00338 0.32212
                         CHANNELS 3 Zrotation Xrotation Yrotation
                         JOINT LeftForeArm
                         {
                              OFFSET 32.76690 0.09914 -1.42434
                              CHANNELS 3 Zrotation Xrotation Yrotation
                              JOINT LeftHand
                              {
                                   OFFSET 27.56430 0.08536 1.02216
                                   CHANNELS 3 Zrotation Xrotation Yrotation
                                   End Site
                                   {
                                        OFFSET 16.74430 -0.60000 1.50291
                                   }
                              }
                         }
                    }
               }
               JOINT RightShoulder
               {
                    OFFSET -8.99000 -0.36225 -0.22000
                    CHANNELS 3 Zrotation Xrotation Yrotation
                    JOINT RightArm
                    {
                         OFFSET -10.28270 -0.00338 0.32212
                         CHANNELS 3 Zrotation Xrotation Yrotation
                         JOINT RightForeArm
                         {
                              OFFSET -32.89710 0.09914 -1.42434
                              CHANNELS 3 Zrotation Xrotation Yrotation
                              JOINT RightHand
                              {
                                   OFFSET -27.49210 0.08536 1.02216
                                   CHANNELS 3 Zrotation Xrotation Yrotation
                                   End Site
                                   {
                                        OFFSET -16.63120 -0.60000 1.50291
                                   }
                              }
                         }
                    }
               }
          }
     }
     JOINT LeftUpLeg
     {
          OFFSET 8.94580 -8.66707 0.10165
          CHANNELS 3 Zrotation Xrotation Yrotation
          JOINT LeftLeg
          {
               OFFSET 0.00000 -44.42270 1.37270
               CHANNELS 3 Zrotation Xrotation Yrotation
               JOINT LeftFoot
               {
                    OFFSET -0.25355 -42.09240 -1.46059
                    CHANNELS 3 Zrotation Xrotation Yrotation
                    JOINT LeftToes
                    {
                         OFFSET -0.04000 -4.41509 8.49910
                         CHANNELS 3 Zrotation Xrotation Yrotation
                         End Site
                         {
                              OFFSET 0.08000 -0.04745 9.77979
                         }
                    }
               }
          }
     }
     JOINT RightUpLeg
     {
          OFFSET -8.94580 -8.66707 0.10165
          CHANNELS 3 Zrotation Xrotation Yrotation
          JOINT RightLeg
          {
               OFFSET 0.00000 -44.42270 1.37270
               CHANNELS 3 Zrotation Xrotation Yrotation
               JOINT RightFoot
               {
                    OFFSET 0.25355 -42.09240 -1.46059
                    CHANNELS 3 Zrotation Xrotation Yrotation
                    JOINT RightToes
                    {
                         OFFSET 0.04000 -4.41509 8.49910
                         CHANNELS 3 Zrotation Xrotation Yrotation
                         End Site
                         {
                              OFFSET -0.08000 -0.13745 9.77979
                         }
                    }
               }
          }
     }
}
MOTION
Frames: 17
Frame Time: 0.01667
18.56180 98.17470 -4.35588 -18.25390 -50.20920 -83.78270 -6.06243 15.38330 2.15614 -18.45100 29.56140 9.90939 -19.67090 -19.09280 8.22482 -0.00000 0.00000 -0.00000 -48.74930 -10.35570 -25.56090 -73.44030 -78.91550 -102.59500 -1.45183 10.29730 -16.88860 -2.42780 0.38592 9.23977 58.71080 35.84310 97.15640 -4.80411 25.39840 101.08900 15.90460 11.57030 7.26377 99.45680 -29.62690 0.75454 -49.78180 7.45509 85.61670 -60.74350 -35.10580 -16.72300 -21.97240 52.88780 16.53390 -60.77010 6.04349 27.46140 35.13680 14.36450 -36.62690 -28.56460 -5.23004 0.46769 3.55253 -25.22040 16.77020 
18.77530 97.72350 -4.42860 -19.41540 -49.80890 -84.95520 -5.98327 15.71010 1.85766 -18.69670 30.04200 9.84008 -20.09500 -19.33540 8.43114 -0.00000 0.00000 -0.00000 -50.45410 -9.65283 -23.81230 -82.50160 -78.96760 -110.18100 -2.82917 10.54090 -16.57050 -2.62812 0.36979 9.39593 59.48130 34.61510 95.38070 -3.30158 25.91940 99.98020 16.09760 11.54230 6.93847 100.07700 -29.43040 2.00423 -49.64070 8.31174 86.95250 -65.73660 -35.27670 -18.54570 -21.54150 49.85380 17.51880 -60.05410 5.23856 27.17060 35.56860 16.29200 -37.28610 -29.12700 -5.71635 0.35023 3.94057 -26.63110 17.12710 
19.08400 97.02720 -5.13114 -20.59950 -49.87350 -85.60050 -6.86342 16.45040 1.35509 -19.64720 30.77210 9.86911 -20.15150 -19.55120 8.82411 -0.00000 0.00000 -0.00000 -51.63060 -8.79410 -22.33070 -88.86560 -78.79610 -115.68200 -3.68712 10.68790 -16.35150 -2.69332 0.36145 9.29877 60.09770 33.36900 94.08860 -2.13486 26.40960 98.79420 16.60160 11.51300 6.41409 98.03030 -30.08600 5.17483 -50.15390 12.44370 88.37310 -64.79740 -33.30260 -16.84490 -27.32520 50.02800 26.00770 -59.13320 4.41011 26.90740 36.22480 19.07760 -38.78420 -29.65940 -6.70673 0.08926 4.27665 -27.82330 17.40670 
19.39970 96.27340 -6.33476 -21.29140 -50.47190 -85.27020 -8.88626 17.43060 0.80414 -21.07540 31.45980 9.90391 -20.02920 -19.23530 9.26352 -0.00000 0.00000 -0.00000 -52.28840 -7.81643 -21.29460 -92.59220 -78.56380 -119.02800 -4.09569 10.75900 -16.29810 -2.50271 0.37338 8.99721 60.62850 32.33940 92.88930 -1.82861 26.68690 98.01280 17.09370 11.45550 5.74347 94.49020 -32.34980 10.72050 -51.96940 20.69460 89.17270 -57.44200 -29.18940 -12.11040 -34.97520 51.85890 35.54170 -58.39060 3.90499 26.81310 37.08970 21.56680 -40.91140 -30.09220 -7.81102 -0.21392 4.47331 -28.52860 17.51790 
19.69230 95.59050 -7.95057 -21.02310 -51.40280 -83.75930 -11.73230 18.40840 0.35741 -22.50020 31.80990 9.89226 -19.99780 -18.04470 9.58645 -0.00000 0.00000 -0.00000 -52.56120 -6.93254 -20.84360 -93.63400 -78.38780 -120.12700 -4.29834 10.79590 -16.31280 -2.08544 0.40143 8.55046 61.23140 31.60470 91.39780 -2.15745 26.77500 97.64020 17.27550 11.37600 5.13297 89.78950 -34.66710 18.40140 -53.57820 30.31780 86.78010 -44.82110 -22.09910 -6.00473 -38.15580 55.51450 37.23940 -57.80250 3.65519 26.83390 38.10680 23.16150 -43.44350 -30.51940 -8.79225 -0.49205 4.49601 -28.70000 17.33870 
19.91580 95.10280 -9.77949 -19.60380 -52.32710 -81.17950 -15.05780 19.20830 0.17075 -23.58090 31.72230 9.84210 -20.16420 -16.04940 9.71679 -0.00000 0.00000 -0.00000 -52.63920 -6.48788 -21.02770 -91.32000 -78.34430 -118.40000 -4.48318 10.82830 -16.29820 -1.54936 0.43362 8.00830 61.95110 31.07870 89.51180 -2.39696 26.78400 97.38350 17.06030 11.30650 4.79850 83.85920 -37.65260 28.66120 -52.60320 43.61060 81.04200 -37.89530 -14.13870 -2.18957 -38.42830 58.83350 35.37020 -57.26980 3.52987 26.85930 39.09700 23.59320 -46.03970 -31.07770 -9.44629 -0.68690 4.40842 -28.55950 16.91990 
19.97250 94.91580 -11.53310 -17.40380 -52.87430 -78.28550 -18.21010 19.50680 0.44748 -24.08710 31.24240 9.75000 -20.42820 -13.66650 9.69671 -0.00000 0.00000 -0.00000 -52.65310 -6.71911 -21.76400 -84.54520 -78.42050 -112.89400 -4.61890 10.84980 -16.23980 -0.98861 0.46199 7.44516 62.69810 30.59000 87.40590 -2.05169 26.79190 97.07140 16.64470 11.27940 4.83935 76.98900 -42.11310 41.83730 -43.13310 63.59440 69.77520 -50.79140 -12.30110 -2.17248 -54.28170 54.51690 57.73610 -56.77970 3.42335 26.75980 39.86090 22.85100 -48.10570 -31.91170 -9.63912 -0.75843 4.32672 -28.41610 16.54490 
19.88840 95.04230 -12.67960 -15.22750 -52.56180 -76.02150 -19.53700 19.01840 1.01079 -23.66860 30.50930 9.56361 -20.62420 -11.38350 9.63017 -0.00000 0.00000 -0.00000 -52.59700 -7.53584 -22.84910 -72.54810 -78.40800 -102.93700 -4.46811 10.82060 -16.18950 -0.47952 0.48414 6.96351 63.37730 29.99030 85.34530 -1.26975 26.79310 96.83870 16.37870 11.30510 5.15680 70.44420 -44.90220 51.19930 -14.80500 78.27930 45.10450 -69.11800 -9.88323 -1.50108 -58.02070 45.17170 69.58750 -56.25720 3.33466 26.40180 40.37410 21.20300 -49.05520 -32.94610 -9.35330 -0.69037 4.32180 -28.41940 16.49700 
19.76110 95.30810 -13.19720 -13.35160 -51.06300 -74.34300 -18.85680 18.00050 1.57808 -22.33350 29.62150 9.28160 -20.65660 -9.50697 9.64091 -0.00000 0.00000 -0.00000 -52.34930 -8.59131 -24.03600 -55.99130 -77.89050 -89.15510 -3.76045 10.69560 -16.21350 -0.09770 0.49978 6.64535 63.98830 29.20650 83.50300 -0.60814 26.74800 96.94240 16.45450 11.36250 5.49904 63.88240 -46.87990 59.16010 69.33230 78.03350 -30.26620 -87.29400 -4.81686 2.72175 -53.89110 35.87430 73.25010 -55.18460 3.21751 25.63440 40.85130 19.16070 -49.23470 -34.03510 -8.85702 -0.55078 4.36339 -28.43830 16.80280 
19.63520 95.55300 -13.43790 -12.25300 -49.02480 -72.99840 -17.25250 17.06090 1.97322 -20.60430 28.99490 8.92032 -20.52160 -8.07081 9.85487 -0.00000 0.00000 -0.00000 -51.79190 -9.62198 -25.12260 -37.23920 -76.42470 -73.79580 -2.41383 10.45770 -16.28620 0.12330 0.50910 6.48872 64.59800 28.23920 81.89440 -0.48340 26.65020 97.44040 16.76330 11.41420 5.66400 57.45780 -47.99260 66.03920 94.71270 66.94540 -47.33360 -96.73160 0.46616 9.04938 -50.15380 31.03610 73.62440 -53.72750 3.68548 24.73240 41.31820 16.96080 -49.09050 -35.08960 -8.37072 -0.40400 4.39167 -28.33220 17.26470 
19.47710 95.73680 -13.63980 -11.67950 -46.69560 -71.66780 -15.59260 16.31770 2.24654 -18.72810 28.58040 8.46422 -20.24770 -6.91556 10.36380 -0.00000 0.00000 -0.00000 -50.93020 -10.75080 -26.00910 -18.52890 -73.65530 -58.95360 -0.63559 10.13930 -16.25540 0.23999 0.51407 6.41245 65.26520 27.12910 80.43180 -0.83824 26.54770 98.06870 17.09290 11.43640 5.62078 51.71300 -48.33750 71.74550 102.71400 57.14670 -48.91580 -100.07900 4.97568 14.81360 -48.83250 28.83590 74.32150 -51.87900 4.67692 23.80030 41.78580 14.66540 -48.88340 -36.08540 -7.97380 -0.27738 4.36965 -28.07250 17.64910 
19.25370 95.89270 -13.89230 -11.31900 -44.25300 -70.19610 -14.29930 15.71070 2.46195 -16.84640 28.22240 7.90619 -19.84980 -5.85320 11.18210 -0.00000 0.00000 -0.00000 -49.89720 -12.40600 -26.70420 -1.03740 -69.11770 -45.59070 1.17431 9.81712 -15.94260 0.37533 0.52017 6.33530 66.01100 25.90000 79.00720 -1.27434 26.52270 98.42470 17.35740 11.43190 5.44486 46.64280 -48.01160 75.76360 106.75200 49.82580 -48.10670 -100.15100 9.44060 19.93630 -49.09390 28.22710 75.29140 -49.74940 5.98975 22.85790 42.19880 12.27130 -48.62090 -36.98080 -7.61910 -0.15780 4.29893 -27.73820 17.79620 
18.96030 96.06950 -14.18580 -10.93470 -41.81680 -68.54200 -13.50080 15.15230 2.65831 -15.05020 27.77520 7.26838 -19.34770 -4.78331 12.21650 -0.00000 0.00000 -0.00000 -48.86560 -14.94620 -27.27740 6.21612 -62.89640 -41.70310 2.65699 9.56826 -15.22920 0.64491 0.53319 6.21013 66.81500 24.54620 77.55940 -1.46180 26.62130 98.26280 17.58540 11.41610 5.22254 41.97700 -47.15330 77.53470 108.95500 45.18500 -47.15140 -98.67730 14.01700 24.46880 -50.09980 28.89650 75.79140 -47.50870 7.43266 21.91730 42.50990 9.72320 -48.20960 -37.74410 -7.21337 -0.01464 4.18902 -27.38920 17.63030 
18.60740 96.30590 -14.48730 -10.41870 -39.48660 -66.72490 -13.24460 14.59360 2.86469 -13.40820 27.18120 6.59109 -18.78520 -3.69518 13.26460 -0.00000 0.00000 -0.00000 -47.95630 -18.44120 -27.81570 -0.86497 -56.27130 -50.77640 3.74559 9.41266 -14.12960 1.10262 0.55373 5.99342 67.60670 23.06300 76.11900 -1.39245 26.79910 97.64410 17.77370 11.39770 5.01006 37.44630 -45.81560 76.69040 109.80500 43.35260 -47.01130 -96.67430 18.03750 27.87410 -51.30910 30.46160 75.59490 -45.37140 8.97985 21.04790 42.71250 6.79530 -47.57970 -38.50620 -6.59722 0.21007 4.09601 -27.19650 17.23390 
18.21180 96.62940 -14.77870 -9.75264 -37.35310 -64.76870 -13.58260 14.03600 3.10207 -11.97250 26.47550 5.91201 -18.18550 -2.61213 14.10440 -0.00000 0.00000 -0.00000 -47.20170 -22.73890 -28.41940 -6.75067 -48.58300 -58.36160 4.72304 9.30077 -12.85850 1.73342 0.57744 5.66487 68.30600 21.44170 74.77390 -1.28425 26.96210 96.85130 17.85030 11.37540 4.83269 33.01830 -43.99740 73.28110 109.38400 44.38770 -48.04030 -94.14440 20.72730 29.40500 -52.62660 32.58000 74.99310 -43.59940 10.87140 20.41440 42.86070 2.88595 -46.66520 -39.64050 -5.48396 0.63376 4.12626 -27.48280 16.84480 
17.76170 96.80180 -15.05840 -8.72103 -35.82820 -62.68810 -15.34620 13.49360 3.60282 -10.98760 25.75650 5.27117 -17.49890 -1.57022 14.62460 -0.00000 0.00000 -0.00000 -46.60530 -27.62240 -29.22080 -11.60760 -39.88060 -64.37190 5.99151 9.16366 -11.73150 2.48438 0.60053 5.26718 68.89580 19.64000 73.59080 -1.32431 27.04830 96.16630 17.78000 11.34890 4.70354 28.73450 -41.88080 67.88900 107.79900 48.24290 -50.86600 -89.61330 21.77620 28.23210 -54.51630 35.81210 74.02920 -41.99610 10.73320 19.02450 43.29210 2.97926 -47.09200 -39.54220 -5.66782 0.56388 4.32009 -28.34080 16.64770 
17.30910 96.82760 -15.30270 -7.35198 -34.81270 -60.44080 -18.14340 13.02680 4.21470 -10.22390 25.09540 4.69151 -16.64620 -0.62066 14.83820 -0.00000 0.00000 -0.00000 -46.26070 -32.89430 -30.40970 -15.46460 -30.34260 -68.73810 7.78962 8.96027 -10.96540 3.28881 0.62073 4.85828 69.43880 17.60050 72.60580 -1.51219 27.06400 95.70860 17.63130 11.32450 4.62450 24.99260 -39.71080 61.20880 104.77400 54.94670 -56.55620 -79.95450 21.40780 23.67500 -56.98640 42.21280 70.98520 -41.10160 10.48340 17.78180 43.65740 3.02760 -47.58270 -39.46250 -5.67767 0.55867 4.59292 -29.42290 16.63970 
